<?xml version="1.0" encoding="utf-8"?>
<!-- Generator: Adobe Illustrator 23.0.6, SVG Export Plug-In . SVG Version: 6.00 Build 0)  -->
<svg version="1.1" id="Capa_1" xmlns="http://www.w3.org/2000/svg" xmlns:xlink="http://www.w3.org/1999/xlink" x="0px" y="0px"
	 viewBox="0 0 589.9 487.6" style="enable-background:new 0 0 589.9 487.6;" xml:space="preserve">
<style type="text/css">
	.st0{clip-path:url(#SVGID_2_);}
	.st1{clip-path:url(#SVGID_4_);}
	.st2{fill:url(#SVGID_5_);}
	.st3{fill:#6F6571;}
	.st4{fill:#645E66;}
	.st5{fill:#857E87;}
	.st6{fill:#FFFFFF;}
	.st7{fill:#E9EFF4;}
	.st8{fill:#FFD15C;}
	.st9{fill:#BBC7D1;}
	.st10{clip-path:url(#SVGID_7_);}
	.st11{fill:url(#SVGID_8_);}
	.st12{fill:url(#SVGID_9_);}
	.st13{fill:url(#SVGID_10_);}
	.st14{fill:#66C0EE;}
	.st15{fill:#725D57;}
	.st16{fill:#7ED8F6;}
	.st17{fill:#A8EBFA;}
	.st18{fill:#E8E8E8;}
	.st19{fill:#00A4B0;}
	.st20{fill-rule:evenodd;clip-rule:evenodd;fill:#3E322E;}
	.st21{fill:#3E322E;}
	.st22{fill-rule:evenodd;clip-rule:evenodd;fill:#725D57;}
	.st23{clip-path:url(#SVGID_12_);}
	.st24{fill:url(#SVGID_13_);}
	.st25{fill:#F5716C;}
	.st26{fill:#474456;}
	.st27{fill:#373440;}
	.st28{fill:#615E72;}
	.st29{fill:#61819B;}
	.st30{fill:#446175;}
	.st31{fill:#325268;stroke:#FFFFFF;stroke-width:5;stroke-miterlimit:10;}
	.st32{fill:none;stroke:#FFFFFF;stroke-width:5;stroke-miterlimit:10;}
	.st33{fill:#325268;stroke:#FFFFFF;stroke-width:7;stroke-miterlimit:10;}
	.st34{fill:none;stroke:#899DB1;stroke-width:8;stroke-miterlimit:10;}
	.st35{fill:none;stroke:#899DB1;stroke-width:12;stroke-miterlimit:10;}
	.st36{fill:none;stroke:#698093;stroke-width:8;stroke-miterlimit:10;}
	.st37{fill:#899DB1;}
	.st38{fill:none;stroke:#566B7A;stroke-width:5;stroke-miterlimit:10;}
	.st39{fill:#4A6C82;}
	.st40{fill:none;stroke:#61819B;stroke-miterlimit:10;}
	.st41{fill:none;stroke:#FFFFFF;stroke-width:7;stroke-miterlimit:10;}
	.st42{fill:none;stroke:#ED294F;stroke-width:5;stroke-miterlimit:10;}
	.st43{fill:none;stroke:#3E6077;stroke-width:12;stroke-miterlimit:10;}
	.st44{fill:none;stroke:#2B4959;stroke-width:12;stroke-miterlimit:10;}
	.st45{fill:#8BAA37;}
	.st46{fill:#9AD51B;}
	.st47{fill:#FA519F;}
	.st48{fill:#9B7F4E;}
	.st49{fill:#8C2FB0;}
	.st50{fill:#98CA00;}
	.st51{fill:#3286C6;}
	.st52{fill:#FDFEFF;}
	.st53{fill:#A8CA93;}
	.st54{fill:#FFAE8B;}
	.st55{fill:#411480;}
	.st56{fill:#D649AB;}
	.st57{fill:#DB93C8;}
	.st58{fill:#8FB379;}
	.st59{fill:#F22267;}
	.st60{clip-path:url(#SVGID_15_);}
	.st61{fill:url(#SVGID_16_);}
	.st62{fill:#5C9340;}
	.st63{fill:#58A72A;}
	.st64{fill:#3F5730;}
	.st65{fill:#3E4530;}
	.st66{fill:#343515;}
	.st67{fill:#2C3F20;}
	.st68{fill:#21230D;}
	.st69{fill:#38372A;}
	.st70{fill:#626626;}
	.st71{fill:#525F48;}
	.st72{fill:#6A6C37;}
	.st73{fill:#1F2615;}
	.st74{fill:none;stroke:#21230D;stroke-miterlimit:10;}
	.st75{fill:none;}
	.st76{clip-path:url(#SVGID_18_);}
	.st77{fill:url(#SVGID_19_);}
	.st78{fill:#E6E6E6;}
	.st79{fill:#999999;}
	.st80{fill:#F47921;}
	.st81{fill:#3F4347;}
	.st82{fill:#6CD0F5;}
	.st83{fill:#939799;}
	.st84{fill:#DAE5EF;}
	.st85{fill:#CBD6E0;}
	.st86{clip-path:url(#SVGID_21_);fill:url(#SVGID_22_);}
	.st87{clip-path:url(#SVGID_24_);fill:#E8E8E8;}
	.st88{clip-path:url(#SVGID_26_);fill:#6F6F6F;}
	.st89{clip-path:url(#SVGID_28_);fill:#E8E8E8;}
	.st90{clip-path:url(#SVGID_30_);}
	.st91{clip-path:url(#SVGID_32_);}
	.st92{fill:#46A5CD;}
	.st93{clip-path:url(#SVGID_34_);}
	.st94{clip-path:url(#SVGID_36_);}
	.st95{fill:url(#SVGID_37_);}
	.st96{fill:#757177;}
	.st97{fill:#0084A6;}
	.st98{fill:#69B8D4;}
	.st99{fill:#53433F;}
	.st100{fill:#93793D;}
	.st101{fill:#659C2F;}
	.st102{fill:#65A844;}
	.st103{clip-path:url(#SVGID_39_);}
	.st104{fill:#9F9CA0;}
	.st105{fill:#888889;}
	.st106{fill:#6F6F72;}
	.st107{clip-path:url(#SVGID_41_);}
	.st108{clip-path:url(#SVGID_43_);}
	.st109{clip-path:url(#SVGID_45_);}
	.st110{fill:url(#SVGID_46_);}
	.st111{fill:#E9BE76;}
	.st112{fill:#345B1B;}
	.st113{fill:#548732;}
	.st114{fill:#AC7C75;}
	.st115{fill:#447228;}
	.st116{fill:none;stroke:#AC7C75;stroke-width:6;stroke-miterlimit:10;}
	.st117{fill:none;stroke:#AC7C75;stroke-width:5;stroke-miterlimit:10;}
	.st118{clip-path:url(#SVGID_48_);}
	.st119{fill:url(#SVGID_49_);}
	.st120{fill:#D5AB88;}
	.st121{fill:#FF7058;}
	.st122{fill:#D64734;}
	.st123{fill:#252A2D;}
	.st124{fill:#1A1D1E;}
	.st125{fill:#0A0A0A;}
	.st126{fill:#7F6218;}
	.st127{fill:#23201A;}
	.st128{fill:#FCD735;}
	.st129{fill:#FABF2D;}
	.st130{fill:#374244;}
	.st131{fill:#6A6A7C;}
	.st132{fill:#4C4C60;}
	.st133{fill:#80808E;}
	.st134{fill:#6E6E7A;}
	.st135{fill:#8E8E9B;}
	.st136{fill:#808089;}
</style>
<g>
	<g>
		<defs>
			<path id="SVGID_20_" d="M313.8,6.3c-119.5,0-216.4,96.9-216.4,216.4c0,26.3,4.7,51.5,13.3,74.8l0,0
				c30.5,82.7,109.9,141.6,203.1,141.6s172.7-58.9,203.1-141.6l0,0c8.6-23.3,13.3-48.5,13.3-74.8C530.2,103.2,433.3,6.3,313.8,6.3z"
				/>
		</defs>
		<clipPath id="SVGID_2_">
			<use xlink:href="#SVGID_20_"  style="overflow:visible;"/>
		</clipPath>
		
			<linearGradient id="SVGID_4_" gradientUnits="userSpaceOnUse" x1="313.7983" y1="-1455.2314" x2="313.7983" y2="-1010.7004" gradientTransform="matrix(1 0 0 -1 0 -1010.7004)">
			<stop  offset="0" style="stop-color:#DAE5EF"/>
			<stop  offset="1" style="stop-color:#6DAFDF"/>
		</linearGradient>
		<rect x="91.5" style="clip-path:url(#SVGID_2_);fill:url(#SVGID_4_);" width="444.5" height="444.5"/>
	</g>
	<g>
		<defs>
			<path id="SVGID_23_" d="M313.8,6.3c-119.5,0-216.4,96.9-216.4,216.4c0,26.3,4.7,51.5,13.3,74.8l0,0
				c30.5,82.7,109.9,141.6,203.1,141.6s172.7-58.9,203.1-141.6l0,0c8.6-23.3,13.3-48.5,13.3-74.8C530.2,103.2,433.3,6.3,313.8,6.3z"
				/>
		</defs>
		<clipPath id="SVGID_5_">
			<use xlink:href="#SVGID_23_"  style="overflow:visible;"/>
		</clipPath>
		<path style="clip-path:url(#SVGID_5_);fill:#E8E8E8;" d="M122.9,102.2h15.4c0,0.3,0,0.7,0,1c0,6.9,5.5,12.4,12.4,12.4h74.5
			c6.9,0,12.4-5.6,12.4-12.4s-5.6-12.4-12.4-12.4h-40.3c0-0.3,0-0.7,0-1c0-6.9-5.6-12.4-12.4-12.4h-49.6c-6.9,0-12.4,5.6-12.4,12.4
			C110.5,96.6,116.1,102.2,122.9,102.2z"/>
	</g>
	<g>
		<defs>
			<path id="SVGID_25_" d="M313.8,6.3c-119.5,0-216.4,96.9-216.4,216.4c0,26.3,4.7,51.5,13.3,74.8l0,0
				c30.5,82.7,109.9,141.6,203.1,141.6s172.7-58.9,203.1-141.6l0,0c8.6-23.3,13.3-48.5,13.3-74.8C530.2,103.2,433.3,6.3,313.8,6.3z"
				/>
		</defs>
		<clipPath id="SVGID_7_">
			<use xlink:href="#SVGID_25_"  style="overflow:visible;"/>
		</clipPath>
		<path style="clip-path:url(#SVGID_7_);fill:#6F6F6F;" d="M243.1,172.6l18.1-11c2.5-1.5,5.5-1.6,8.1-0.3c11.8,6,27.4,9.7,44.6,9.7
			s32.8-3.7,44.6-9.7c2.6-1.3,5.6-1.2,8.1,0.3l18.1,11c-20,10.7-44.4,17-70.7,17S263.1,183.3,243.1,172.6z"/>
	</g>
	<g>
		<defs>
			<path id="SVGID_27_" d="M313.8,6.3c-119.5,0-216.4,96.9-216.4,216.4c0,26.3,4.7,51.5,13.3,74.8l0,0
				c30.5,82.7,109.9,141.6,203.1,141.6s172.7-58.9,203.1-141.6l0,0c8.6-23.3,13.3-48.5,13.3-74.8C530.2,103.2,433.3,6.3,313.8,6.3z"
				/>
		</defs>
		<clipPath id="SVGID_8_">
			<use xlink:href="#SVGID_27_"  style="overflow:visible;"/>
		</clipPath>
		<path style="clip-path:url(#SVGID_8_);fill:#E8E8E8;" d="M445.1,9.4c-6.9,0-12.4,5.6-12.4,12.4c0,0.7,0.1,1.3,0.2,1.9h-40.7
			c-6.9,0-12.4,5.6-12.4,12.4c0,6.9,5.6,12.4,12.4,12.4h11c-1.1,1.9-1.8,4.1-1.8,6.4c0,6.9,5.5,12.4,12.4,12.4h122.4v-58L445.1,9.4
			L445.1,9.4z"/>
	</g>
	<g>
		<defs>
			<path id="SVGID_29_" d="M313.8,6.3c-119.5,0-216.4,96.9-216.4,216.4c0,26.3,4.7,51.5,13.3,74.8l0,0
				c30.5,82.7,109.9,141.6,203.1,141.6s172.7-58.9,203.1-141.6l0,0c8.6-23.3,13.3-48.5,13.3-74.8C530.2,103.2,433.3,6.3,313.8,6.3z"
				/>
		</defs>
		<clipPath id="SVGID_9_">
			<use xlink:href="#SVGID_29_"  style="overflow:visible;"/>
		</clipPath>
		<g style="clip-path:url(#SVGID_9_);">
			<g>
				<defs>
					<rect id="SVGID_31_" x="91.5" width="444.5" height="444.5"/>
				</defs>
				<clipPath id="SVGID_10_">
					<use xlink:href="#SVGID_31_"  style="overflow:visible;"/>
				</clipPath>
				<g style="clip-path:url(#SVGID_10_);">
					<path class="st81" d="M362.1,232.5h-97.6V158h97.6V232.5z"/>
					<path class="st5" d="M576.6,282.9c-11.9,105.7-154,160.2-262.8,160.2S87.3,381.8,75.4,276.1l185.8-117c2.5-1.5,5.5-1.6,8.1-0.3
						c11.8,6,27.4,9.7,44.6,9.7s32.8-3.7,44.6-9.7c2.6-1.3,5.6-1.2,8.1,0.3L576.6,282.9z"/>
					<path class="st3" d="M384.2,242c-1.8-3.4,2.7-6.6,5.4-3.8l82.8,89.9h-42.8L384.2,242z M341.2,328.1L317,214.9
						c-0.7-3.5-5.7-3.5-6.5,0l-24.2,113.2H341.2z M206.6,328.1l37-86.4c1.4-3.3-2.7-6.2-5.3-3.7l-97.6,90.1H206.6z"/>
					<path class="st82" d="M553.6,342.2c139.1,162.1-160.1,140-247.4,140s-294.9,47.5-230.8-140H553.6z"/>
					<path class="st92" d="M553.6,342.2c-13.1,21.3,21,40.5,2.1,56.8H417.8c-15.7,0-28.4-12.7-28.4-28.4h-47.3
						c-15.7,0-28.4-12.7-28.4-28.4L553.6,342.2L553.6,342.2z M266.5,408.4h-47.3c0-15.7-12.7-28.4-28.4-28.4H56
						c20.2,21.8-30.4,41.4-27.5,55.2c3.1,14.9-83.9,19.3,31.4,20.7c33.3,0.4,208.5,0.5,226.9,0.5c1.9-2,5.1-5.8,6.8-11.7
						c0.8-2.6,1.2-5.3,1.2-8.1C294.8,421.1,282.1,408.4,266.5,408.4z"/>
					<path class="st82" d="M275.9,422.6c0,2.6-2.1,4.7-4.7,4.7h-28.4c-2.6,0-4.7-2.1-4.7-4.7s2.1-4.7,4.7-4.7h28.4
						C273.8,417.9,275.9,420,275.9,422.6z M195.5,389.5h-18.9c-2.6,0-4.7,2.1-4.7,4.7s2.1,4.7,4.7,4.7h18.9c2.6,0,4.7-2.1,4.7-4.7
						S198.1,389.5,195.5,389.5z M451,361.1h-28.4c-2.6,0-4.7,2.1-4.7,4.7s2.1,4.7,4.7,4.7H451c2.6,0,4.7-2.1,4.7-4.7
						S453.6,361.1,451,361.1z"/>
					<path class="st92" d="M228.6,356.4c0,2.6-2.1,4.7-4.7,4.7h-66.2c-2.6,0-4.7-2.1-4.7-4.7s2.1-4.7,4.7-4.7h66.2
						C226.5,351.6,228.6,353.8,228.6,356.4z M299.6,370.6h-28.4c-2.6,0-4.7,2.1-4.7,4.7s2.1,4.7,4.7,4.7h28.4c2.6,0,4.7-2.1,4.7-4.7
						C304.3,372.7,302.2,370.6,299.6,370.6z M384.7,408.4h-47.3c-2.6,0-4.7,2.1-4.7,4.7s2.1,4.7,4.7,4.7h47.3c2.6,0,4.7-2.1,4.7-4.7
						C389.5,410.5,387.3,408.4,384.7,408.4z"/>
					<polygon class="st3" points="550.4,300.5 454.1,308.3 162.1,308.3 83.1,288.6 83.1,342.2 550.4,342.2 					"/>
				</g>
			</g>
		</g>
	</g>
</g>
</svg>
